<svg class="die" xmlns="http://www.w3.org/2000/svg" width="100" height="100" viewBox="0 0 100 100">
  <g>
    <path d="M86.621,6.46115H13.38221a7.05794,7.05794,0,0,0-6.92106,7.18726V86.35494A7.05464,7.05464,0,0,0,13.379,93.53885h73.2388a7.05794,7.05794,0,0,0,6.92106-7.18726V13.64506A7.05464,7.05464,0,0,0,86.621,6.46115Z" style="fill:none; stroke:currentColor!important; stroke-miterlimit: 10;stroke-width: 3px"/>
    <ellipse cx="26" cy="26" rx="9" ry="9" style="fill: currentColor;"/>
    <ellipse cx="74" cy="26" rx="9" ry="9" style="fill: currentColor;"/>
    <ellipse cx="26" cy="50" rx="9" ry="9" style="fill: currentColor;"/>
    <ellipse cx="74" cy="50" rx="9" ry="9" style="fill: currentColor;"/>
    <ellipse cx="26" cy="74" rx="9" ry="9" style="fill: currentColor;"/>
    <ellipse cx="74" cy="74" rx="9" ry="9" style="fill: currentColor;"/>
  </g>
</svg>